<?xml version="1.0" encoding="UTF-8"?>
<svg viewBox="0 0 616.11163 62.024269" xmlns="http://www.w3.org/2000/svg">
 <g transform="translate(-77.601 -425.81)" fill="#ffffff" fill-rule="evenodd" stroke="#eee">
  <g transform="matrix(.8504 0 0 .89861 12.065 46.69)">
   <path d="m439.25 460.28s0.00868 26.319-35.965 18.746-304.83-15.147-321.87 11.36c43.921-9.9942 239.95-21.525 326.18-6.4848 15.542 3.008 31.083 2.5067 31.662-23.621z"/>
   <path d="m439.24 460.32s-0.00868 26.319 35.965 18.746 304.83-15.147 321.87 11.36c-43.921-9.9942-239.95-21.525-326.18-6.4848-15.542 3.008-31.083 2.5067-31.662-23.621z"/>
  </g>
  <path d="m369.73 473.97c-1.5694-8.792-3.5468-15.444-11.931-16.015s5.4279 4.4428 11.931 16.015z"/>
  <path d="m373.38 462.92c-1.5694-8.792-3.5468-15.444-11.931-16.015s5.4279 4.4428 11.931 16.015z"/>
  <path d="m401.1 473.21c1.5694-8.792 3.5468-15.444 11.931-16.015s-5.4279 4.4428-11.931 16.015z"/>
  <path d="m397.44 462.15c1.5694-8.792 3.5468-15.444 11.931-16.015s-5.4279 4.4428-11.931 16.015z"/>
  <path d="m371.54 426.65s28.58 9.5268-2.0414 10.207c0 0 15.651-1.7012 15.991 15.991 0-16.672 14.971-17.012 14.971-17.012-30.622 1.361-0.34024-9.1865-0.34024-9.1865l0.68048-0.34025-29.261 0.34025z"/>
  <path d="m80.735 487.28c-14.609-18.838 36.138-20.76 40.367-22.298s9.2268-4.229 1.5378-12.302c21.914 8.0735 103.8 14.609 103.8 14.609-41.136-1.1534-145.71 4.229-145.71 19.991z"/>
  <path d="m690.58 486.59c14.609-18.838-36.138-20.76-40.367-22.298s-9.2268-4.229-1.5378-12.302c-21.914 8.0735-103.8 14.609-103.8 14.609 41.136-1.1534 145.71 4.229 145.71 19.991z"/>
 </g>
</svg>
